<svg width="28" height="28" viewBox="0 0 28 28" fill="none" xmlns="http://www.w3.org/2000/svg">
<path fill-rule="evenodd" clip-rule="evenodd" d="M13.9997 4.66666C12.3672 4.66636 10.7633 5.09423 9.34786 5.90756C7.93245 6.72089 6.75512 7.89123 5.93337 9.30177C5.11163 10.7123 4.67422 12.3137 4.6648 13.9461C4.65538 15.5786 5.07428 17.1849 5.87969 18.6048C6.42407 17.8973 7.12386 17.3245 7.92495 16.9306C8.72605 16.5368 9.607 16.3324 10.4997 16.3333H17.4997C18.3924 16.3324 19.2733 16.5368 20.0744 16.9306C20.8755 17.3245 21.5753 17.8973 22.1197 18.6048C22.9251 17.1849 23.344 15.5786 23.3346 13.9461C23.3252 12.3137 22.8877 10.7123 22.066 9.30177C21.2443 7.89123 20.0669 6.72089 18.6515 5.90756C17.2361 5.09423 15.6321 4.66636 13.9997 4.66666ZM23.2665 21.0887C24.8264 19.0551 25.6701 16.5629 25.6664 14C25.6664 7.5565 20.4432 2.33333 13.9997 2.33333C7.55619 2.33333 2.33302 7.5565 2.33302 14C2.32917 16.5629 3.17291 19.0552 4.73285 21.0887L4.72702 21.1097L5.14119 21.5915C6.23539 22.8708 7.59397 23.8975 9.12329 24.6011C10.6526 25.3046 12.3163 25.6682 13.9997 25.6667C16.3649 25.671 18.675 24.9526 20.6205 23.6075C21.4499 23.0344 22.202 22.3569 22.8582 21.5915L23.2724 21.1097L23.2665 21.0887ZM13.9997 6.99999C13.0714 6.99999 12.1812 7.36874 11.5248 8.02512C10.8684 8.6815 10.4997 9.57174 10.4997 10.5C10.4997 11.4283 10.8684 12.3185 11.5248 12.9749C12.1812 13.6312 13.0714 14 13.9997 14C14.9279 14 15.8182 13.6312 16.4746 12.9749C17.1309 12.3185 17.4997 11.4283 17.4997 10.5C17.4997 9.57174 17.1309 8.6815 16.4746 8.02512C15.8182 7.36874 14.9279 6.99999 13.9997 6.99999Z" fill="#3772FF"/>
</svg>
