<svg width="206" height="129" viewBox="0 0 206 129" fill="none" xmlns="http://www.w3.org/2000/svg">
<path fill-rule="evenodd" clip-rule="evenodd" d="M70 5C70 2.23857 72.2386 0 75 0C77.7614 0 80 2.23858 80 5V122C80 124.761 77.7614 127 75 127H5C2.23857 127 0 124.761 0 122C0 119.239 2.23857 117 5 117H70V5ZM108 19C105.239 19 103 21.2386 103 24V124C103 126.761 105.239 129 108 129C110.761 129 113 126.761 113 124V29H167C167.695 29 169.238 29.2182 170.812 29.9899C172.313 30.7251 173.65 31.8594 174.469 33.6144C174.467 33.6095 174.466 33.607 174.466 33.607C174.465 33.6073 174.528 33.7613 174.621 34.147C174.72 34.5543 174.825 35.101 174.929 35.8013C175.137 37.2048 175.311 39.0238 175.449 41.2062C175.725 45.5633 175.84 51.0724 175.863 57.0192C175.893 65.0538 175.757 73.6754 175.638 81.1338V81.1365V81.1385V81.1401V81.1412L175.638 81.1502L175.637 81.2086L175.637 81.2301L175.636 81.2796L175.636 81.2937C175.58 84.8148 175.528 88.0728 175.501 90.8821C175.416 93.1295 175.212 95.7579 174.454 97.7871C174.089 98.7639 173.699 99.3052 173.395 99.5818C173.176 99.782 172.88 99.9712 172.223 100.008C165.833 100.363 156.652 100.202 151.057 100.044C150.876 100.015 150.69 100 150.5 100C150.381 100 150.263 100.006 150.148 100.018L149.656 100.002L149.653 100.103C148.129 100.482 147 101.859 147 103.5V106.5C147 108.03 147.982 109.331 149.35 109.807L149.344 109.998C154.666 110.164 165.334 110.406 172.777 109.992C179.126 109.64 182.363 105.19 183.821 101.288C185.214 97.5623 185.414 93.423 185.497 91.1851L185.499 91.1166L185.5 91.0481C185.526 88.3027 185.578 85.0426 185.634 81.4842L185.635 81.4599C185.754 73.9483 185.894 65.1106 185.862 56.9808C185.839 50.9693 185.723 45.2283 185.429 40.5751C185.282 38.2523 185.087 36.1259 184.821 34.3354C184.576 32.6823 184.21 30.8402 183.531 29.3856C180.262 22.3799 173.729 19.8636 169.4 19.1985C168.955 19.0693 168.486 19 168 19H167H108ZM120 0C117.239 0 115 2.23858 115 5C115 7.76142 117.239 10 120 10H177.569C179.35 10 182.57 10.4317 185.787 11.787C188.973 13.1293 191.785 15.2122 193.451 18.2813C193.627 18.6057 194.011 19.688 194.397 21.9296C194.758 24.0269 195.056 26.7151 195.291 29.9059C195.759 36.2793 195.954 44.3167 195.993 52.9656C196.045 64.6557 195.813 77.2165 195.613 88.0623C195.517 93.2657 195.428 98.0744 195.381 102.203C195.238 105.46 194.898 109.517 193.492 112.75C192.814 114.31 191.976 115.462 190.983 116.24C190.041 116.978 188.706 117.585 186.624 117.685C174.668 118.256 157.155 117.923 148.134 117.681L148.126 118H134V43C134 40.2386 131.761 38 129 38C126.239 38 124 40.2386 124 43V123C124 125.761 126.239 128 129 128H132H154H164V127.971C171.763 128.041 180.268 128 187.101 127.673C191.102 127.482 194.463 126.219 197.152 124.11C199.79 122.042 201.518 119.371 202.663 116.736C204.894 111.605 205.235 105.822 205.375 102.555L205.379 102.475L205.38 102.395C205.425 98.3814 205.512 93.6226 205.608 88.4329C205.809 77.5271 206.045 64.7187 205.992 52.9211C205.954 44.1966 205.758 35.8897 205.264 29.1724C205.017 25.818 204.69 22.7743 204.252 20.2312C203.838 17.8325 203.247 15.366 202.24 13.5111C199.175 7.86323 194.242 4.49801 189.67 2.57153C185.529 0.826775 181.379 0.125862 178.4 0.01577C178.268 0.00531769 178.135 0 178 0H177.569H120ZM15 104C15 101.239 17.2386 99 20 99H50V24C50 21.2386 52.2386 19 55 19C57.7614 19 60 21.2386 60 24V104C60 106.761 57.7614 109 55 109H20C17.2386 109 15 106.761 15 104Z" fill="#D9D9D9"/>
</svg>
